<svg xmlns="http://www.w3.org/2000/svg" xmlns:xlink="http://www.w3.org/1999/xlink" width="47" height="35" viewBox="0 0 47 35"><defs><path id="bfnoa" d="M541.2 1247.65c-.64 0-1.06.44-1.06 1.1v23.98c0 .65.42 1.09 1.06 1.09h40.6c.64 0 1.06-.44 1.06-1.1v-23.98c0-.65-.42-1.09-1.06-1.09h-9.4a3.36 3.36 0 0 1-2.89-1.74l-.96-1.97c-.21-.43-.53-.54-.96-.54H555.3c-.42 0-.74.22-.96.54l-.96 2.08a3.1 3.1 0 0 1-2.88 1.85h-9.3zm40.6 28.35h-40.6a3.18 3.18 0 0 1-3.2-3.27v-23.99a3.18 3.18 0 0 1 3.2-3.27h9.3c.42 0 .75-.22.96-.54l.96-2.08a3.1 3.1 0 0 1 2.88-1.85h12.29a3.1 3.1 0 0 1 2.88 1.85l.96 1.86c.22.32.54.54.97.54h9.4c1.81 0 3.2 1.42 3.2 3.27v23.99c0 2.07-1.39 3.49-3.2 3.49z"/><path id="bfnob" d="M561.5 1252.01a8.66 8.66 0 0 0-8.55 8.72c0 4.8 3.85 8.73 8.55 8.73 4.7 0 8.55-3.93 8.55-8.73 0-4.8-3.85-8.72-8.55-8.72zm0 19.63c-5.88 0-10.68-4.9-10.68-10.9s4.8-10.9 10.68-10.9 10.68 4.9 10.68 10.9-4.8 10.9-10.68 10.9z"/></defs><g><g transform="translate(-538 -1241)"><use fill="#222528" xlink:href="#bfnoa"/></g><g transform="translate(-538 -1241)"><use fill="#222528" xlink:href="#bfnob"/></g></g></svg>