<svg xmlns="http://www.w3.org/2000/svg" xmlns:xlink="http://www.w3.org/1999/xlink" width="16" height="16" viewBox="0 0 16 16"><defs><path id="seoaa" d="M1461.06 2847.47a.5.5 0 0 1-.5.5h-2.03a.5.5 0 0 1-.5-.5v-2.02c0-.28.22-.5.5-.5h2.02c.28 0 .5.22.5.5zm0 9.09c0 .35-.15.5-.5.5h-11.11c-.36 0-.5-.15-.5-.5v-7.07l1.25.28c-.13.43-.2.9-.2 1.38a4.94 4.94 0 0 0 5.01 4.86 4.94 4.94 0 0 0 5.02-4.86c0-.48-.07-.95-.2-1.39l1.23-.27v7.07zm-6.05-8.73a3.2 3.2 0 0 1 3.24 3.15 3.2 3.2 0 0 1-3.24 3.14 3.2 3.2 0 0 1-3.24-3.15 3.2 3.2 0 0 1 3.24-3.14zm6.05-4.9h-12.12c-1.14 0-2.02.88-2.02 2.02v12.11c0 1.14.88 2.02 2.02 2.02h12.12c1.14 0 2.02-.88 2.02-2.02v-12.11c0-1.14-.88-2.02-2.02-2.02z"/></defs><g><g transform="translate(-1447 -2843)"><use fill="#fff" xlink:href="#seoaa"/></g></g></svg>