<svg xmlns="http://www.w3.org/2000/svg" xmlns:xlink="http://www.w3.org/1999/xlink" width="48" height="48"><defs><path id="a" d="M1513.06152 65.66394c.45093-5.49988 6.2832-9.57019 13.93848-9.57019 7.65527 0 13.48755 4.07031 13.93847 9.57019C1537.22619 68.97107 1532.35144 71 1527 71s-10.2262-2.02893-13.93848-5.33606zm5.99121-20.50281c0-4.37402 3.56445-7.93262 7.94726-7.93262s7.94727 3.55859 7.94727 7.93262c0 4.37402-3.56446 7.93262-7.94727 7.93262-4.38281 0-7.94726-3.5586-7.94726-7.93262zM1527.00001 29C1538.58009 29.00001 1548 38.4209 1548 50c0 4.90991-1.70654 9.42163-4.54053 13.00171-1.30103-4.19567-5.01526-7.48022-10.05627-8.99158 2.74719-1.98816 4.54407-5.20923 4.54407-8.849 0-6.02832-4.91015-10.93262-10.94726-10.93262s-10.94726 4.9043-10.94726 10.93262c0 3.63977 1.79688 6.86084 4.54407 8.849-5.04102 1.51135-8.75525 4.7959-10.05628 8.99158-2.83398-3.58007-4.54053-8.09179-4.54053-13.00171 0-11.5791 9.41991-20.99999 20.99999-21zM1551 50c0-13.2334-10.76563-24-24-24s-24 10.7666-24 24c0 6.76721 2.82642 12.87732 7.34729 17.2445.10583.13782.2312.24951.37793.34363C1515.00769 71.55383 1520.71655 74 1527 74s11.99231-2.44617 16.27478-6.41187c.14673-.09412.27209-.20581.37793-.34363C1548.17358 62.87731 1551 56.76721 1551 50z"/></defs><g transform="translate(-1503 -26)"><use fill="#c0c0c8" xlink:href="#a"/></g></svg>