<svg xmlns="http://www.w3.org/2000/svg" xmlns:xlink="http://www.w3.org/1999/xlink" width="18" height="16" viewBox="0 0 18 16"><defs><path id="nooba" d="M1505.23 2843.89a3.68 3.68 0 0 0-2.48 3.7l.03.63-.63-.08c-2.32-.3-4.34-1.3-6.06-2.98l-.84-.84-.21.62a3.72 3.72 0 0 0 .79 3.8c.5.55.39.63-.49.3-.3-.1-.57-.18-.6-.14-.08.1.22 1.26.46 1.73.33.64 1 1.27 1.75 1.64l.62.3-.74.01c-.71 0-.74.01-.66.29.25.83 1.26 1.72 2.38 2.1l.79.28-.69.4c-1.02.6-2.21.93-3.41.96-.57.01-1.04.06-1.04.1 0 .13 1.55.85 2.45 1.13 2.71.84 5.93.48 8.35-.95a11.18 11.18 0 0 0 4.23-5c.44-1.03.87-2.94.87-3.85 0-.6.04-.67.75-1.38.42-.4.81-.86.89-.99.13-.24.11-.24-.53-.02-1.08.38-1.24.33-.7-.25.4-.4.86-1.15.86-1.37 0-.04-.19.02-.4.14-.23.13-.74.32-1.12.44l-.7.22-.61-.43a5.19 5.19 0 0 0-1.09-.57 4.34 4.34 0 0 0-2.22.06z"/></defs><g><g transform="translate(-1494 -2843)"><use fill="#fff" xlink:href="#nooba"/></g></g></svg>