<svg xmlns="http://www.w3.org/2000/svg" viewBox="0 0 1000 1000"><path d="M500.1 321.7c-98.4 0-178.2 79.8-178.2 178.2 0 98.4 79.8 178.2 178.2 178.2 98.4 0 178.2-79.8 178.2-178.2 0-98.4-79.8-178.2-178.2-178.2zm398.1 133.7c-20.5-185.7-168-333.1-353.7-353.7V10h-89.1v91.8c-185.7 20.5-333.1 168-353.7 353.7H10v89.1h91.8c20.5 185.7 168 333.1 353.7 353.7V990h89.1v-91.8c185.7-20.5 333.1-168 353.7-353.7H990v-89.1h-91.8zM500.1 811.8c-172.2 0-311.8-139.7-311.8-311.8 0-172.2 139.7-311.8 311.8-311.8 172.2 0 311.8 139.7 311.8 311.8 0 172.1-139.7 311.8-311.8 311.8z"/></svg>